<svg id="Capa_1" data-name="Capa 1" xmlns="http://www.w3.org/2000/svg" viewBox="0 0 1687.1213 352.20357"><defs><style>.cls-1{fill:#fff;}</style></defs><path class="cls-1" d="M783.21084,524.0549h34.59165v78.46443c-20.53,16.59266-49.2165,25.0298-77.05809,25.0298-61.02868,0-106.02617-42.46644-106.02617-101.24435s44.99749-101.24436,106.58763-101.24436c32.90548,0,60.46544,10.9682,79.02769,32.0606l-23.0611,22.49875c-15.468-15.4675-33.18532-22.49875-54.27862-22.49875-41.90318,0-71.43273,28.40484-71.43273,69.18376,0,39.93538,29.52955,69.18375,71.1511,69.18375,14.06161,0,27.84338-2.81223,40.49864-10.12421Z" transform="translate(-156.8787 -306.14067)"/><path class="cls-1" d="M986.68883,579.17705H888.25761L868.85227,624.7369h-37.686L919.755,427.8731h35.998l88.87027,196.8638h-38.24742Zm-12.092-28.686-37.1245-86.05759L900.63124,550.491Z" transform="translate(-156.8787 -306.14067)"/><path class="cls-1" d="M1064.31556,427.8731h36.56124V593.801h102.93187V624.7369H1064.31556Z" transform="translate(-156.8787 -306.14067)"/><path class="cls-1" d="M1225.10468,427.8731h36.56124V624.7369h-36.56124Z" transform="translate(-156.8787 -306.14067)"/><path class="cls-1" d="M1307.19617,427.8731h36.56125V593.801h102.93187V624.7369H1307.19617Z" transform="translate(-156.8787 -306.14067)"/><path class="cls-1" d="M1615.633,594.08219V624.7369H1467.9835V427.8731h143.71213v30.65426H1504.54474v51.18476h95.05709V539.804h-95.05709v54.27817Z" transform="translate(-156.8787 -306.14067)"/><path class="cls-1" d="M1631.94944,526.30478c0-58.21556,44.99749-101.24436,106.02618-101.24436C1799.00251,425.06042,1844,467.808,1844,526.30478s-44.99749,101.24435-106.02438,101.24435C1676.94693,627.54913,1631.94944,584.52034,1631.94944,526.30478Zm175.20948,0c0-40.21657-29.52955-69.18376-69.1833-69.18376s-69.18331,28.96719-69.18331,69.18376,29.52955,69.18375,69.18331,69.18375S1807.15892,566.52134,1807.15892,526.30478Z" transform="translate(-156.8787 -306.14067)"/><path class="cls-1" d="M512.11552,613.342c-36.75988,27.72652-91.2901,45.00224-153.13925,45.00224-113.31311,0-202.09757-57.99188-202.09757-132.03946,0-74.04738,88.78446-132.03926,202.09757-132.03926l-6.23092,18.79215c-85.35579,2.30784-158.48015,54.37586-158.48015,106.48584,0,62.40776,75.4322,101.41423,164.71107,101.41423,42.101,0,81.13591-9.65978,110.60986-25.22107l-.2968-1.28562L422.30905,394.26552l-27.81,84.0735-19.20327,58.05415-16.3359-10.10479L342.624,516.18359l69.4649-210.04292,32.67181,20.20958,57.66207,245.682Z" transform="translate(-156.8787 -306.14067)"/><path class="cls-1" d="M561.0677,526.30478H547.22084c0-30.66077-21.5284-58.9807-55.78284-79.61909l-5.5717-23.86924C531.98936,446.8175,561.0677,483.94019,561.0677,526.30478Z" transform="translate(-156.8787 -306.14067)"/></svg>